<svg xmlns="http://www.w3.org/2000/svg" xmlns:xlink="http://www.w3.org/1999/xlink" viewBox="0 0 500 500"><defs><clipPath id="freepik--clip-path--inject-1--inject-63"><path d="M346.47,247.9S306.73,269.36,304.78,272s-3.17,8,3.66,8.53,32.67-9.26,32.67-9.26Z" style="fill:#fff;stroke:#2e353a;stroke-linecap:round;stroke-linejoin:round"></path></clipPath><clipPath id="freepik--clip-path-2--inject-1--inject-63"><path d="M334.1,230.09l-2.2-1.6s-2-1.56-3-.34c0,0-3.17,11.95-3.66,13.41S301.37,265,300.15,269.84a7.76,7.76,0,0,0,5.36,9.27c2.93.73,6.83-7.07,8.53-11s15.12-24.38,15.12-24.38a3.87,3.87,0,0,0,2.44,0,11.18,11.18,0,0,0,2.44-2.44l2.44-1c1.21-.48,4.14-5.36,4.38-6.09a.65.65,0,0,0,0-.22C339.18,231.79,334.1,230.09,334.1,230.09Z" style="fill:#fff;stroke:#2e353a;stroke-linecap:round;stroke-linejoin:round"></path></clipPath><clipPath id="freepik--clip-path-3--inject-1--inject-63"><path d="M291.7,300.16s-23.09-2-27.64-.65-5.2,7.15-3.9,11.38S276.09,378,276.09,378l13.65-3.58-7.47-47.24Z" style="fill:#fff;stroke:#2e353a;stroke-miterlimit:10"></path></clipPath><clipPath id="freepik--clip-path-4--inject-1--inject-63"><path d="M353.46,298.21s-25.68-1.63-38-2.6-21.13-4.88-25,.65S266,369.4,266,369.4L263.74,374s11.05,8.13,13.33,8.13,12-34.46,17.88-40.64S305,320.31,305,320.31h45.19Z" style="fill:#fff;stroke:#2e353a;stroke-miterlimit:10"></path></clipPath><clipPath id="freepik--clip-path-5--inject-1--inject-63"><path d="M379.14,260.58l6.59,29.74s2.88,6.37,9.22,5.64,9.55-9,7.6-13.44-12.44-34.37-12.44-34.37l-8-2" style="fill:#fff;stroke:#2e353a;stroke-linecap:round;stroke-linejoin:round"></path></clipPath><clipPath id="freepik--clip-path-6--inject-1--inject-63"><path d="M398.65,294s.2-4.38-5.16-6.58-7.33-.24-11.48,0a249.78,249.78,0,0,0-27,4.14c-7.08,1.71-12.15-1.32-14.1.87a14.86,14.86,0,0,0-2.68,4.15s31.65-.38,42.62-.87S397.43,297.15,398.65,294Z" style="fill:#fff;stroke:#2e353a;stroke-linecap:round;stroke-linejoin:round"></path></clipPath><clipPath id="freepik--clip-path-7--inject-1--inject-63"><path d="M354.37,213.66s-2.66,15.36-1.77,20.09,4.72,9.15,12.4,8.86,11.23-8.86,11.23-8.86,7.38-.3,8.27-4.14-.89-6.5-2.95-6.5a17.31,17.31,0,0,0-5,1.18s-5.31-2.06-5-4.13,4.73-5.32,3.84-6.5S354.37,213.66,354.37,213.66Z" style="fill:#fff;stroke:#2e353a;stroke-linecap:round;stroke-linejoin:round"></path></clipPath></defs><!--Movie night--><g id="freepik--background-simple--inject-1--inject-63"><rect x="295.94" y="188.01" width="55.66" height="56.01" style="fill:#90CEA1"></rect><path d="M351.61,131.29V109.22a43.07,43.07,0,0,0-14.36,4.57c-10.47,5.76-21.23,12.19-32.4,17.5Z" style="fill:#90CEA1"></path><rect x="358.61" y="138.29" width="53.91" height="42.71" style="fill:#90CEA1"></rect><rect x="358.61" y="188.01" width="53.91" height="56.01" style="fill:#90CEA1"></rect><rect x="295.94" y="138.29" width="55.66" height="42.71" style="fill:#90CEA1"></rect><path d="M358.61,131.29h53.91v-5.9c-17.36-12.28-37.44-17.45-53.91-16.82Z" style="fill:#90CEA1"></path><path d="M430.38,329.44S464,253.82,450,184.51c-4.81-23.8-16.3-41.41-30.46-53.65V251H288.94V138.29h-.35v-.36a83.45,83.45,0,0,1-26.26,4.57c-27.3,0-44.81-20.31-100.12-39.21S57.88,130.59,49.48,183.81,83.09,289.53,81.69,321s-11.41,69.49-11.41,69.49h366.4S423.37,365.85,430.38,329.44Zm-236-123.23H120.9V117.29h73.52Zm60.53,7.7H206.32V155.1H255Z" style="fill:#90CEA1"></path><rect x="127.26" y="124.99" width="60.78" height="73.52" style="fill:#90CEA1"></rect><rect x="210.53" y="160.19" width="40.2" height="48.63" style="fill:#90CEA1"></rect><g style="opacity:0.7000000000000001"><rect x="295.94" y="188.01" width="55.66" height="56.01" style="fill:#fff"></rect><path d="M351.61,131.29V109.22a43.07,43.07,0,0,0-14.36,4.57c-10.47,5.76-21.23,12.19-32.4,17.5Z" style="fill:#fff"></path><rect x="358.61" y="138.29" width="53.91" height="42.71" style="fill:#fff"></rect><rect x="358.61" y="188.01" width="53.91" height="56.01" style="fill:#fff"></rect><rect x="295.94" y="138.29" width="55.66" height="42.71" style="fill:#fff"></rect><path d="M358.61,131.29h53.91v-5.9c-17.36-12.28-37.44-17.45-53.91-16.82Z" style="fill:#fff"></path><path d="M430.38,329.44S464,253.82,450,184.51c-4.81-23.8-16.3-41.41-30.46-53.65V251H288.94V138.29h-.35v-.36a83.45,83.45,0,0,1-26.26,4.57c-27.3,0-44.81-20.31-100.12-39.21S57.88,130.59,49.48,183.81,83.09,289.53,81.69,321s-11.41,69.49-11.41,69.49h366.4S423.37,365.85,430.38,329.44Zm-236-123.23H120.9V117.29h73.52Zm60.53,7.7H206.32V155.1H255Z" style="fill:#fff"></path><rect x="127.26" y="124.99" width="60.78" height="73.52" style="fill:#fff"></rect><rect x="210.53" y="160.19" width="40.2" height="48.63" style="fill:#fff"></rect></g></g><g id="freepik--Shadow--inject-1--inject-63"><ellipse cx="262" cy="389" rx="205" ry="5.33" style="fill:#2e353a"></ellipse></g><g id="freepik--Plants--inject-1--inject-63"><path d="M455.86,328.89c-3.39-4.07-5-4.11-5.66-3.8q0-3.22,0-6.56c2.35,2,4.4,3.69,4.4,3.69a27.58,27.58,0,0,0-4.62-9.73c-.14-2.48-.33-5-.6-7.42-.2-1.81-.36-3.65-.51-5.49.81,3.21,1.6,6.76,4.14,9.3a70.4,70.4,0,0,1,6,7.31s-1.91-8.26-5.72-11.75a21.24,21.24,0,0,1-4.51-5.49c-.3-4.06-.49-8.16-.59-12.18a39.1,39.1,0,0,0,0-5.2l-.11.14c0-.63,0-1.25,0-1.86A16.43,16.43,0,0,0,455.54,293s0-7.62-3.49-12.07-3.81-3.49-3.81-3.49c-.07.59-.11,1.17-.12,1.72,0-5.64.13-10.91.32-15.44a8.93,8.93,0,0,0,2,4.83c3.18,3.49,6.35,3.49,6.35,3.49s-1.27-7.3-3.49-9.53a31.13,31.13,0,0,0-4.64-3.73c.33-6,.68-9.85.69-10a.46.46,0,0,0-.42-.51.48.48,0,0,0-.51.42c0,.2-1.2,13-1.26,29a33.9,33.9,0,0,0-2.12-7.58c-1.9-3.82-5.08-3.5-5.08-3.5a3.12,3.12,0,0,0-.4-.05c-.38-8.76-.55-16.7-.6-23.27,1.4,4.16,7.67,12.52,7.67,12.52s0-11.75-2.54-13.34a6.1,6.1,0,0,0-5.14-.41c0-2.77,0-5.28,0-7.48l.39-.05-.39-.26c0-6.19.17-9.87.17-10a.46.46,0,0,0-.45-.48.47.47,0,0,0-.49.45c0,.1-.12,3.57-.16,9.43-1.34-.75-3.44-1.66-5-1.06-2.54,1-4.13,11.75-4.13,11.75s4.28-8,9.16-9.59c0,6.33,0,15.15.38,25.42-1.13-.15-5.1-.48-7,2-2.23,2.85-5.4,12.7-5.4,12.7l12.4-14.27q.1,3,.24,6.16c-.27.3-.16.88.07,1.56.32,6.65.75,13.75,1.36,21a47,47,0,0,0-4.86,6.46c-3.5,5.4-3.81,13.66-3.81,13.66s7.86-8.18,9.41-11.81c.63,7.33,1.11,14.21,1.47,20.5a20.26,20.26,0,0,1-3.58,5.92c-3.18,3.81-3.18,12.39-3.18,12.39s6-2.8,7.09-12.07c.94,19.73.7,32.27.69,32.45a.47.47,0,0,0,.46.48h0a.46.46,0,0,0,.47-.46c0-.22.39-19.79-1.65-48.56a10.4,10.4,0,0,0,.87,3.38c.62,1.23,3.23,3.71,5.76,5.95.07,2.73.07,5.42,0,8.05a7.13,7.13,0,0,0-2.28,4.11,94.13,94.13,0,0,0-1.59,10.48,14.43,14.43,0,0,0,3.56-6.37,225.32,225.32,0,0,1-2.78,25.14.48.48,0,0,0,.38.55h.09a.47.47,0,0,0,.46-.39A232.9,232.9,0,0,0,450.18,326c.59,1,1.86,3.13,3.46,5.41,2.22,3.18,7.62,7.94,7.62,7.94S460.63,334.61,455.86,328.89Zm-8.26-18.74c-5.08-3.81-5.08-5.08-5.08-5.08a18.27,18.27,0,0,0,0,1.87c-.29-4-.63-8.16-1-12.46a23.22,23.22,0,0,0-.5-5.74c-.47-5.72-.83-11.29-1.12-16.63,1,2.34,5.33,8.27,7.35,11v.11a30.13,30.13,0,0,0-2.47,6.33,14.17,14.17,0,0,0,.64,9.85,38.73,38.73,0,0,0,2.09-7.11c.2,4.32.51,8.68,1,12.92q.33,3.09.52,6.19A13.06,13.06,0,0,0,447.6,310.15Z" style="fill:#2e353a"></path><polygon points="453.75 390.93 437 390.93 433.42 353.24 457.34 353.24 453.75 390.93" style="fill:#2e353a"></polygon></g><g id="freepik--Character--inject-1--inject-63"><path d="M302.1,259.2v36.41H260a17.06,17.06,0,0,0-17.07,17.06h0A17.07,17.07,0,0,0,260,329.74h0a3.74,3.74,0,0,1,3.74,3.74v57H344V259.2a21,21,0,0,0-20.8-21h0A21,21,0,0,0,302.1,259.2Z" style="fill:#90CEA1;stroke:#2e353a;stroke-miterlimit:10"></path><path d="M315.43,259.2v36.41h-42.1a17.06,17.06,0,0,0-17.07,17.06h0a17.07,17.07,0,0,0,17.07,17.07h0a3.74,3.74,0,0,1,3.74,3.74v57h80.29V259.2a21,21,0,0,0-20.8-21h0A21,21,0,0,0,315.43,259.2Z" style="fill:#90CEA1;stroke:#2e353a;stroke-miterlimit:10"></path><path d="M326.5,320,310,323s-.5,8.5-3.5,14a17.66,17.66,0,0,1-9,7.5l-4,18.5s9.5,22,9.5,24.5-3.5,3-3.5,3h-20V314H329Z" style="fill:#2e353a"></path><path d="M308.6,306.08V258.37c0-11.21,9.41-20.3,21-20.3h87c11.6,0,21,9.09,21,20.3v55.77H327.27Z" style="fill:#90CEA1;stroke:#2e353a;stroke-miterlimit:10"></path><path d="M380.73,238.06l-1.84,7.7L390,249.15s4.59,1.65,6.47,5.85,3.08,13.24,3.08,13.24l.31,8.62V294h-36l4.92-47.6,4.62-8Z" style="fill:#2e353a"></path><path d="M351.19,342.74A409.1,409.1,0,0,1,308,344.69c-21.78-.32-34.78-2.6-34.78-2.6" style="fill:none;stroke:#2e353a;stroke-miterlimit:10"></path><path d="M346.47,247.9S306.73,269.36,304.78,272s-3.17,8,3.66,8.53,32.67-9.26,32.67-9.26Z" style="fill:#fff"></path><g style="clip-path:url(#freepik--clip-path--inject-1--inject-63)"><path d="M343.06,257l-3.53,6.21-3.42-6.16,1.8,8.76-2.54-.09,1.1,2.68-21.89,8.4s7.18.83,12.65-1.2,10.38-3.34,10.38-3.34Z" style="fill:#90CEA1"></path><path d="M343.06,257l-3.53,6.21-3.42-6.16,1.8,8.76-2.54-.09,1.1,2.68-21.89,8.4s7.18.83,12.65-1.2,10.38-3.34,10.38-3.34Z" style="opacity:0.30000000000000004;mix-blend-mode:multiply"></path></g><path d="M346.47,247.9S306.73,269.36,304.78,272s-3.17,8,3.66,8.53,32.67-9.26,32.67-9.26Z" style="fill:none;stroke:#2e353a;stroke-linecap:round;stroke-linejoin:round"></path><path d="M335.35,226.75a19.76,19.76,0,0,0,5.36-3.17c1.71-1.71,2.44-.24,2.44.73s.49,3.42-1.95,4.39S335.35,229.19,335.35,226.75Z" style="fill:#fff;stroke:#2e353a;stroke-linecap:round;stroke-linejoin:round"></path><path d="M329.82,229.08a21.44,21.44,0,0,1,3.48-2.5c1-.36,7.06-2.1,8.41-1.48s3.14,3.33,3.69,4.41.18,2.65-1,2.59-4.19-3.58-4.19-3.58l-5,1.66s-2.07.92-3.08.33S330.09,230.26,329.82,229.08Z" style="fill:#fff;stroke:#2e353a;stroke-linecap:round;stroke-linejoin:round"></path><path d="M330.11,227.42s2.28-.86,2.94-.35a14.46,14.46,0,0,0,4,1.78c2.09.67,4.42,1.44,4.92,3s-2,3.93-2,3.93a73,73,0,0,0-6.86-4.18C331,230.54,327.58,228.15,330.11,227.42Z" style="fill:#fff;stroke:#2e353a;stroke-linecap:round;stroke-linejoin:round"></path><path d="M334.1,230.09l-2.2-1.6s-2-1.56-3-.34c0,0-3.17,11.95-3.66,13.41S301.37,265,300.15,269.84a7.76,7.76,0,0,0,5.36,9.27c2.93.73,6.83-7.07,8.53-11s15.12-24.38,15.12-24.38a3.87,3.87,0,0,0,2.44,0,11.18,11.18,0,0,0,2.44-2.44l2.44-1c1.21-.48,4.14-5.36,4.38-6.09a.65.65,0,0,0,0-.22C339.18,231.79,334.1,230.09,334.1,230.09Z" style="fill:#fff"></path><g style="clip-path:url(#freepik--clip-path-2--inject-1--inject-63)"><path d="M303.59,278.25a6.74,6.74,0,0,0,1.92.86c2.93.73,6.83-7.07,8.53-11s15.12-24.38,15.12-24.38-25.06,28-25.78,32A4.92,4.92,0,0,0,303.59,278.25Z" style="fill:#90CEA1;mix-blend-mode:multiply"></path><path d="M303.59,278.25a6.74,6.74,0,0,0,1.92.86c2.93.73,6.83-7.07,8.53-11s15.12-24.38,15.12-24.38-25.06,28-25.78,32A4.92,4.92,0,0,0,303.59,278.25Z" style="opacity:0.30000000000000004;mix-blend-mode:multiply"></path></g><path d="M334.1,230.09l-2.2-1.6s-2-1.56-3-.34c0,0-3.17,11.95-3.66,13.41S301.37,265,300.15,269.84a7.76,7.76,0,0,0,5.36,9.27c2.93.73,6.83-7.07,8.53-11s15.12-24.38,15.12-24.38a3.87,3.87,0,0,0,2.44,0,11.18,11.18,0,0,0,2.44-2.44l2.44-1c1.21-.48,4.14-5.36,4.38-6.09a.65.65,0,0,0,0-.22C339.18,231.79,334.1,230.09,334.1,230.09Z" style="fill:none;stroke:#2e353a;stroke-linecap:round;stroke-linejoin:round"></path><path d="M331.86,237.64a14.31,14.31,0,0,0,3.32.79" style="fill:none;stroke:#2e353a;stroke-linecap:round;stroke-linejoin:round"></path><path d="M333.6,238.59s-2,2.61.44,2.73" style="fill:none;stroke:#2e353a;stroke-linecap:round;stroke-linejoin:round"></path><path d="M330.65,232.15s5.48,2.64,6.43,3.59a2.54,2.54,0,0,1,.8,2.85" style="fill:none;stroke:#2e353a;stroke-linecap:round;stroke-linejoin:round"></path><path d="M346.71,231s-1.2,2-.6,2.56,2.4.9,2.55-.45S348.51,230.54,346.71,231Z" style="fill:#fff;stroke:#2e353a;stroke-linecap:round;stroke-linejoin:round"></path><path d="M289.74,374.38s5.86,8.45,5.86,10.41-10.08,4.55-14.31,4.87-14.3,1.3-18.53.65,0-2.27,4.23-5.2,8.13-3.9,9.1-7.15Z" style="fill:#2e353a;stroke:#2e353a;stroke-miterlimit:10"></path><path d="M281.29,389.66c4.23-.32,14.31-2.92,14.31-4.87a6.32,6.32,0,0,0-.76-2.14,49.4,49.4,0,0,1-18.42,4.74c-6.77.35-11.08.41-13.61.4-2,1.29-2.74,2.11-.05,2.52C267,391,277.07,390,281.29,389.66Z" style="fill:#fff;stroke:#2e353a;stroke-miterlimit:10"></path><path d="M291.7,300.16s-23.09-2-27.64-.65-5.2,7.15-3.9,11.38S276.09,378,276.09,378l13.65-3.58-7.47-47.24Z" style="fill:#fff"></path><g style="clip-path:url(#freepik--clip-path-3--inject-1--inject-63)"><path d="M287.77,305.14s-9.68-2.34-9.34-.67,1,4.34,1,4.34-5.68-6.68-6.35-2.34,9,24.37,9,24.37Z" style="fill:#90CEA1"></path><path d="M287.77,305.14s-9.68-2.34-9.34-.67,1,4.34,1,4.34-5.68-6.68-6.35-2.34,9,24.37,9,24.37Z" style="opacity:0.30000000000000004;mix-blend-mode:multiply"></path></g><path d="M291.7,300.16s-23.09-2-27.64-.65-5.2,7.15-3.9,11.38S276.09,378,276.09,378l13.65-3.58-7.47-47.24Z" style="fill:none;stroke:#2e353a;stroke-miterlimit:10"></path><polyline points="277.27 308.89 282.5 316.59 281.89 307.96" style="fill:none;stroke:#2e353a;stroke-linecap:round;stroke-linejoin:round"></polyline><path d="M365.73,243.51s-18.53,3.66-19.26,4.39-17.55,49.5-17.55,49.5h43.15s19.75-48,18-49.25S369.39,243,365.73,243.51Z" style="fill:#fff;stroke:#2e353a;stroke-linecap:round;stroke-linejoin:round"></path><polygon points="380.27 266.03 379.42 267.89 374 263.99 377.9 269.42 368.57 268.74 374.68 272.64 364.68 290.1 375.19 288.4 382.13 272.64 380.27 266.03" style="fill:#90CEA1"></polygon><polygon points="380.27 266.03 379.42 267.89 374 263.99 377.9 269.42 368.57 268.74 374.68 272.64 364.68 290.1 375.19 288.4 382.13 272.64 380.27 266.03" style="opacity:0.30000000000000004;mix-blend-mode:multiply"></polygon><polyline points="371.68 261.59 382.14 271.27 372.2 269.96" style="fill:none;stroke:#2e353a;stroke-linecap:round;stroke-linejoin:round"></polyline><path d="M365.73,243.51s-3.8.75-8,1.64c-.92,3.81-2.89,12.32-2.7,14.94.24,3.42,2.92,2.2,5.12,1.71,1.92-.43,12.51-12.53,15.88-17.11C371.49,243.87,367.26,243.31,365.73,243.51Z" style="fill:#2e353a;stroke:#2e353a;stroke-linecap:round;stroke-linejoin:round"></path><polygon points="337.56 277.9 345.94 277.9 339.47 298.42 330.85 298.42 337.56 277.9" style="fill:#2e353a"></polygon><path d="M361.59,241.07s-4.88,17.07-3.17,17.32,12.43-11.71,13.41-14.15,4.4-10.49,4.4-10.49S369.39,240.59,361.59,241.07Z" style="fill:#fff;stroke:#2e353a;stroke-linecap:round;stroke-linejoin:round"></path><path d="M371.83,244.24c1-2.43,4.4-10.49,4.4-10.49s-6.84,6.84-14.64,7.32l-.34,1.2c1.23,1,3.52,2.67,4.61,2.91s-1,5.65-2.51,9.29C367,250.82,371.23,245.74,371.83,244.24Z" style="fill:#90CEA1;mix-blend-mode:multiply"></path><path d="M371.83,244.24c1-2.43,4.4-10.49,4.4-10.49s-6.84,6.84-14.64,7.32l-.34,1.2c1.23,1,3.52,2.67,4.61,2.91s-1,5.65-2.51,9.29C367,250.82,371.23,245.74,371.83,244.24Z" style="opacity:0.30000000000000004;mix-blend-mode:multiply"></path><path d="M354.37,213.66s-10.63,1.18-12.11-5.61,4.74-8.05,8.57-5c2.93,2.32-2.07-4.43,2.06-6.79s4.73.59,9.46,1.48,6.79-.59,14.17-.59,8.28,7.68,8.28,12.4-2.66,16.84-2.66,16.84-4.43,1.18-7.68,0-7.09-5-5.91-7.38-1.77-3.55-4.73-3.55S354.37,213.66,354.37,213.66Z" style="fill:#2e353a;stroke:#2e353a;stroke-linecap:round;stroke-linejoin:round"></path><path d="M368.44,211.15a42.43,42.43,0,0,0,5.59-1.07c8.11-2.09,10.72,1.31,10.72,1.31" style="fill:none;stroke:#fff;stroke-linecap:round;stroke-linejoin:round;stroke-width:0.75px"></path><path d="M361.22,211.13a17,17,0,0,0,3.14.26" style="fill:none;stroke:#fff;stroke-linecap:round;stroke-linejoin:round;stroke-width:0.75px"></path><path d="M375.34,214.53s5.49-.53,8.1,2.35" style="fill:none;stroke:#fff;stroke-linecap:round;stroke-linejoin:round;stroke-width:0.75px"></path><path d="M308.37,276.83a1.29,1.29,0,1,1-1.29-1.29A1.29,1.29,0,0,1,308.37,276.83Z" style="fill:#fff;stroke:#2e353a;stroke-miterlimit:10;stroke-width:0.5px"></path><circle cx="309.1" cy="275.6" r="1.62" style="fill:#fff;stroke:#2e353a;stroke-miterlimit:10;stroke-width:0.5px"></circle><circle cx="308.65" cy="277.95" r="1.18" style="fill:#fff;stroke:#2e353a;stroke-miterlimit:10;stroke-width:0.5px"></circle><path d="M337.28,276.77a1.29,1.29,0,1,1-1.29-1.28A1.29,1.29,0,0,1,337.28,276.77Z" style="fill:#fff;stroke:#2e353a;stroke-miterlimit:10;stroke-width:0.5px"></path><path d="M339.63,275.54a1.63,1.63,0,1,1-1.62-1.62A1.62,1.62,0,0,1,339.63,275.54Z" style="fill:#fff;stroke:#2e353a;stroke-miterlimit:10;stroke-width:0.5px"></path><path d="M338.74,277.9a1.18,1.18,0,1,1-1.18-1.18A1.17,1.17,0,0,1,338.74,277.9Z" style="fill:#fff;stroke:#2e353a;stroke-miterlimit:10;stroke-width:0.5px"></path><path d="M322.94,274.42a1.29,1.29,0,1,1-1.29-1.29A1.29,1.29,0,0,1,322.94,274.42Z" style="fill:#fff;stroke:#2e353a;stroke-miterlimit:10;stroke-width:0.5px"></path><path d="M325.29,273.19a1.63,1.63,0,1,1-1.63-1.63A1.62,1.62,0,0,1,325.29,273.19Z" style="fill:#fff;stroke:#2e353a;stroke-miterlimit:10;stroke-width:0.5px"></path><circle cx="323.22" cy="275.54" r="1.18" style="fill:#fff;stroke:#2e353a;stroke-miterlimit:10;stroke-width:0.5px"></circle><circle cx="318.45" cy="272.96" r="1.29" style="fill:#fff;stroke:#2e353a;stroke-miterlimit:10;stroke-width:0.5px"></circle><path d="M322.1,271.73a1.63,1.63,0,1,1-3.25,0,1.63,1.63,0,0,1,3.25,0Z" style="fill:#fff;stroke:#2e353a;stroke-miterlimit:10;stroke-width:0.5px"></path><path d="M321.2,274.09a1.18,1.18,0,1,1-1.18-1.18A1.17,1.17,0,0,1,321.2,274.09Z" style="fill:#fff;stroke:#2e353a;stroke-miterlimit:10;stroke-width:0.5px"></path><path d="M328.54,274.09a1.29,1.29,0,1,1-1.29-1.29A1.28,1.28,0,0,1,328.54,274.09Z" style="fill:#fff;stroke:#2e353a;stroke-miterlimit:10;stroke-width:0.5px"></path><circle cx="329.27" cy="272.85" r="1.62" style="fill:#fff;stroke:#2e353a;stroke-miterlimit:10;stroke-width:0.5px"></circle><circle cx="328.82" cy="275.21" r="1.18" style="fill:#fff;stroke:#2e353a;stroke-miterlimit:10;stroke-width:0.5px"></circle><path d="M333.13,273.75a1.29,1.29,0,1,1,.74,1.67A1.29,1.29,0,0,1,333.13,273.75Z" style="fill:#fff;stroke:#2e353a;stroke-miterlimit:10;stroke-width:0.5px"></path><path d="M330.49,274a1.63,1.63,0,1,1,.93,2.11A1.63,1.63,0,0,1,330.49,274Z" style="fill:#fff;stroke:#2e353a;stroke-miterlimit:10;stroke-width:0.5px"></path><path d="M332.19,272.18a1.16,1.16,0,0,1,1.52-.67,1.18,1.18,0,1,1-1.52.67Z" style="fill:#fff;stroke:#2e353a;stroke-miterlimit:10;stroke-width:0.5px"></path><path d="M335.39,275.83a1.29,1.29,0,1,1,.73,1.67A1.29,1.29,0,0,1,335.39,275.83Z" style="fill:#fff;stroke:#2e353a;stroke-miterlimit:10;stroke-width:0.5px"></path><path d="M332.75,276.12a1.63,1.63,0,1,1,.92,2.11A1.63,1.63,0,0,1,332.75,276.12Z" style="fill:#fff;stroke:#2e353a;stroke-miterlimit:10;stroke-width:0.5px"></path><path d="M334.44,274.26a1.17,1.17,0,1,1,.67,1.52A1.17,1.17,0,0,1,334.44,274.26Z" style="fill:#fff;stroke:#2e353a;stroke-miterlimit:10;stroke-width:0.5px"></path><path d="M316.11,273.37a1.28,1.28,0,0,1,1.67-.73,1.29,1.29,0,0,1-.94,2.4A1.29,1.29,0,0,1,316.11,273.37Z" style="fill:#fff;stroke:#2e353a;stroke-miterlimit:10;stroke-width:0.5px"></path><path d="M313.47,273.66a1.63,1.63,0,1,1,.93,2.1A1.62,1.62,0,0,1,313.47,273.66Z" style="fill:#fff;stroke:#2e353a;stroke-miterlimit:10;stroke-width:0.5px"></path><path d="M315.16,271.79a1.18,1.18,0,0,1,2.2.86,1.18,1.18,0,0,1-2.2-.86Z" style="fill:#fff;stroke:#2e353a;stroke-miterlimit:10;stroke-width:0.5px"></path><path d="M323.61,277.06a1.29,1.29,0,1,1-1.29-1.29A1.28,1.28,0,0,1,323.61,277.06Z" style="fill:#fff;stroke:#2e353a;stroke-miterlimit:10;stroke-width:0.5px"></path><path d="M326,275.82a1.63,1.63,0,1,1-1.62-1.62A1.63,1.63,0,0,1,326,275.82Z" style="fill:#fff;stroke:#2e353a;stroke-miterlimit:10;stroke-width:0.5px"></path><circle cx="323.89" cy="278.18" r="1.18" style="fill:#fff;stroke:#2e353a;stroke-miterlimit:10;stroke-width:0.5px"></circle><path d="M312.09,277.9a1.29,1.29,0,1,1,.55-1.74A1.28,1.28,0,0,1,312.09,277.9Z" style="fill:#fff;stroke:#2e353a;stroke-miterlimit:10;stroke-width:0.5px"></path><path d="M314.28,279.42a1.63,1.63,0,1,1-1.51-2.88,1.63,1.63,0,0,1,1.51,2.88Z" style="fill:#fff;stroke:#2e353a;stroke-miterlimit:10;stroke-width:0.5px"></path><path d="M311.77,279.71a1.18,1.18,0,1,1,.5-1.59A1.17,1.17,0,0,1,311.77,279.71Z" style="fill:#fff;stroke:#2e353a;stroke-miterlimit:10;stroke-width:0.5px"></path><path d="M314.35,275.43a1.29,1.29,0,1,1,.55-1.74A1.29,1.29,0,0,1,314.35,275.43Z" style="fill:#fff;stroke:#2e353a;stroke-miterlimit:10;stroke-width:0.5px"></path><path d="M316.53,277a1.62,1.62,0,0,1-1.5-2.88,1.62,1.62,0,1,1,1.5,2.88Z" style="fill:#fff;stroke:#2e353a;stroke-miterlimit:10;stroke-width:0.5px"></path><path d="M314,277.24a1.17,1.17,0,1,1,.5-1.59A1.17,1.17,0,0,1,314,277.24Z" style="fill:#fff;stroke:#2e353a;stroke-miterlimit:10;stroke-width:0.5px"></path><path d="M332.39,276.55a1.29,1.29,0,1,1,.55-1.74A1.28,1.28,0,0,1,332.39,276.55Z" style="fill:#fff;stroke:#2e353a;stroke-miterlimit:10;stroke-width:0.5px"></path><path d="M334.58,278.07a1.63,1.63,0,1,1,.69-2.19A1.64,1.64,0,0,1,334.58,278.07Z" style="fill:#fff;stroke:#2e353a;stroke-miterlimit:10;stroke-width:0.5px"></path><path d="M332.08,278.36a1.17,1.17,0,1,1,.49-1.59A1.18,1.18,0,0,1,332.08,278.36Z" style="fill:#fff;stroke:#2e353a;stroke-miterlimit:10;stroke-width:0.5px"></path><path d="M319.92,278.64a1.29,1.29,0,1,1,.55-1.74A1.29,1.29,0,0,1,319.92,278.64Z" style="fill:#fff;stroke:#2e353a;stroke-miterlimit:10;stroke-width:0.5px"></path><circle cx="321.35" cy="278.71" r="1.62" transform="translate(-86.31 157.23) rotate(-24.34)" style="fill:#fff;stroke:#2e353a;stroke-miterlimit:10;stroke-width:0.5px"></circle><path d="M319.6,280.45a1.18,1.18,0,0,1-1.09-2.09,1.18,1.18,0,1,1,1.09,2.09Z" style="fill:#fff;stroke:#2e353a;stroke-miterlimit:10;stroke-width:0.5px"></path><path d="M316,277.52a1.29,1.29,0,1,1-1.19-2.29,1.29,1.29,0,0,1,1.19,2.29Z" style="fill:#fff;stroke:#2e353a;stroke-miterlimit:10;stroke-width:0.5px"></path><path d="M318.18,279a1.62,1.62,0,1,1,.69-2.19A1.61,1.61,0,0,1,318.18,279Z" style="fill:#fff;stroke:#2e353a;stroke-miterlimit:10;stroke-width:0.5px"></path><path d="M315.68,279.33a1.18,1.18,0,1,1,.5-1.59A1.18,1.18,0,0,1,315.68,279.33Z" style="fill:#fff;stroke:#2e353a;stroke-miterlimit:10;stroke-width:0.5px"></path><path d="M319.15,275.55a1.29,1.29,0,1,1,.55-1.74A1.28,1.28,0,0,1,319.15,275.55Z" style="fill:#fff;stroke:#2e353a;stroke-miterlimit:10;stroke-width:0.5px"></path><path d="M321.33,277.07a1.62,1.62,0,1,1,.69-2.2A1.63,1.63,0,0,1,321.33,277.07Z" style="fill:#fff;stroke:#2e353a;stroke-miterlimit:10;stroke-width:0.5px"></path><path d="M318.83,277.36a1.18,1.18,0,1,1,.5-1.59A1.18,1.18,0,0,1,318.83,277.36Z" style="fill:#fff;stroke:#2e353a;stroke-miterlimit:10;stroke-width:0.5px"></path><path d="M311.53,274.12a1.29,1.29,0,1,1,.55-1.74A1.29,1.29,0,0,1,311.53,274.12Z" style="fill:#fff;stroke:#2e353a;stroke-miterlimit:10;stroke-width:0.5px"></path><circle cx="312.96" cy="274.2" r="1.62" transform="translate(-85.2 153.37) rotate(-24.34)" style="fill:#fff;stroke:#2e353a;stroke-miterlimit:10;stroke-width:0.5px"></circle><path d="M311.21,275.93a1.17,1.17,0,0,1-1.09-2.08,1.17,1.17,0,1,1,1.09,2.08Z" style="fill:#fff;stroke:#2e353a;stroke-miterlimit:10;stroke-width:0.5px"></path><path d="M327.67,276.11a1.29,1.29,0,1,1-1.19-2.28,1.27,1.27,0,0,1,1.73.54A1.29,1.29,0,0,1,327.67,276.11Z" style="fill:#fff;stroke:#2e353a;stroke-miterlimit:10;stroke-width:0.5px"></path><path d="M329.85,277.63a1.63,1.63,0,0,1-2.19-.69,1.63,1.63,0,0,1,2.88-1.51A1.64,1.64,0,0,1,329.85,277.63Z" style="fill:#fff;stroke:#2e353a;stroke-miterlimit:10;stroke-width:0.5px"></path><path d="M327.35,277.92a1.18,1.18,0,1,1,.5-1.59A1.18,1.18,0,0,1,327.35,277.92Z" style="fill:#fff;stroke:#2e353a;stroke-miterlimit:10;stroke-width:0.5px"></path><polygon points="334.72 302.35 310.6 302.35 305.43 276.83 339.89 276.83 334.72 302.35" style="fill:#fff;stroke:#2e353a;stroke-miterlimit:10"></polygon><polygon points="321.81 302.35 339.38 276.83 332.18 276.83 315.03 302.35 321.81 302.35" style="fill:#2e353a"></polygon><polygon points="310.21 300.46 326.24 276.83 317.97 276.83 308.45 291.76 310.21 300.46" style="fill:#2e353a"></polygon><path d="M353.46,298.21s-25.68-1.63-38-2.6-21.13-4.88-25,.65S266,369.4,266,369.4L263.74,374s11.05,8.13,13.33,8.13,12-34.46,17.88-40.64S305,320.31,305,320.31h45.19Z" style="fill:#fff"></path><g style="clip-path:url(#freepik--clip-path-4--inject-1--inject-63)"><path d="M312,303.67a21.24,21.24,0,0,0-4.33,3.66s-3.34-7.33-4.34-4.66,1.34,8.33,1.34,8.33-4.67-2.33-4.34.67a56.55,56.55,0,0,1,.34,5.66s-5.67,12-9.67,21.34-15.67,36.66-17,41a5.46,5.46,0,0,0-.2,1,9.47,9.47,0,0,0,3.27,1.4c2.27,0,12-34.46,17.88-40.64S305,320.31,305,320.31h43.3c.64-1.45,1.13-2.55,1.35-3l-16-18S315.4,301.25,312,303.67Z" style="fill:#90CEA1"></path><path d="M312,303.67a21.24,21.24,0,0,0-4.33,3.66s-3.34-7.33-4.34-4.66,1.34,8.33,1.34,8.33-4.67-2.33-4.34.67a56.55,56.55,0,0,1,.34,5.66s-5.67,12-9.67,21.34-15.67,36.66-17,41a5.46,5.46,0,0,0-.2,1,9.47,9.47,0,0,0,3.27,1.4c2.27,0,12-34.46,17.88-40.64S305,320.31,305,320.31h43.3c.64-1.45,1.13-2.55,1.35-3l-16-18S315.4,301.25,312,303.67Z" style="opacity:0.30000000000000004;mix-blend-mode:multiply"></path></g><path d="M353.46,298.21s-25.68-1.63-38-2.6-21.13-4.88-25,.65S266,369.4,266,369.4L263.74,374s11.05,8.13,13.33,8.13,12-34.46,17.88-40.64S305,320.31,305,320.31h45.19Z" style="fill:none;stroke:#2e353a;stroke-miterlimit:10"></path><polyline points="308.6 310.89 305.02 320.31 311.85 313.81" style="fill:none;stroke:#2e353a;stroke-linecap:round;stroke-linejoin:round"></polyline><path d="M263.74,374s-9.1.33-11.7,0-9.11-3.57-10.41-1,4.23,6.82,8.45,10.07,16.91,7.48,20.81,8.13,6.18-9.1,6.18-9.1Z" style="fill:#2e353a;stroke:#2e353a;stroke-miterlimit:10"></path><path d="M273.72,389.79c-4.23-1.19-12.37-3.56-16.81-5.43s-11.64-8.49-15-11.77a1.84,1.84,0,0,0-.28.39c-1.3,2.6,4.23,6.82,8.45,10.07s16.91,7.48,20.81,8.13A3.12,3.12,0,0,0,273.72,389.79Z" style="fill:#fff;stroke:#2e353a;stroke-miterlimit:10"></path><path d="M390.13,259.2v36.41H344.38c-10.25,0-18.55,7.64-18.55,17.06h0c0,9.43,8.3,17.07,18.55,17.07h.32a3.73,3.73,0,0,1,3.74,3.74v57h87.27V259.2c0-11.52-10.1-20.88-22.61-21h0C400.44,238.14,390.13,247.56,390.13,259.2Z" style="fill:#90CEA1;stroke:#2e353a;stroke-linecap:round;stroke-linejoin:round"></path><path d="M399.83,294V276.86l-.31-8.62s-1.2-9-3.08-13.24a11.11,11.11,0,0,0-4.18-4.65,19.52,19.52,0,0,0-2.13,8.85V294Z" style="fill:#2e353a"></path><path d="M398.32,259.2v36.41h-42.1a17.06,17.06,0,0,0-17.06,17.06h0a17.06,17.06,0,0,0,17.06,17.07h0a3.73,3.73,0,0,1,3.74,3.74v57h80.3V259.2a21,21,0,0,0-20.81-21h0A21,21,0,0,0,398.32,259.2Z" style="fill:#90CEA1;stroke:#2e353a;stroke-linecap:round;stroke-linejoin:round"></path><path d="M398.32,259.2v36.41h-42.1a17.06,17.06,0,0,0-17.06,17.06h0a17.06,17.06,0,0,0,17.06,17.07h0a3.73,3.73,0,0,1,3.74,3.74v57h80.3V259.2a21,21,0,0,0-20.81-21h0A21,21,0,0,0,398.32,259.2Z" style="opacity:0.30000000000000004"></path><path d="M379.14,260.58l6.59,29.74s2.88,6.37,9.22,5.64,9.55-9,7.6-13.44-12.44-34.37-12.44-34.37l-8-2" style="fill:#fff"></path><g style="clip-path:url(#freepik--clip-path-5--inject-1--inject-63)"><path d="M385.53,247.38a15,15,0,0,1,4.4,7.12c1,4.24,9.16,26.61,9,29.16s-6.45,3.39-6.45,3.39,4.68,3.57,5.43,5.25l.75,1.68s4.16-2.19,4.5-5.92a16.05,16.05,0,0,0-1.69-7.63l-11.35-32.28Z" style="fill:#90CEA1;mix-blend-mode:multiply"></path><path d="M385.53,247.38a15,15,0,0,1,4.4,7.12c1,4.24,9.16,26.61,9,29.16s-6.45,3.39-6.45,3.39,4.68,3.57,5.43,5.25l.75,1.68s4.16-2.19,4.5-5.92a16.05,16.05,0,0,0-1.69-7.63l-11.35-32.28Z" style="opacity:0.30000000000000004;mix-blend-mode:multiply"></path></g><path d="M379.14,260.58l6.59,29.74s2.88,6.37,9.22,5.64,9.55-9,7.6-13.44-12.44-34.37-12.44-34.37l-8-2" style="fill:none;stroke:#2e353a;stroke-linecap:round;stroke-linejoin:round"></path><path d="M398.65,294s.2-4.38-5.16-6.58-7.33-.24-11.48,0a249.78,249.78,0,0,0-27,4.14c-7.08,1.71-12.15-1.32-14.1.87a14.86,14.86,0,0,0-2.68,4.15s31.65-.38,42.62-.87S397.43,297.15,398.65,294Z" style="fill:#fff"></path><g style="clip-path:url(#freepik--clip-path-6--inject-1--inject-63)"><path d="M394.34,288.06s.34,1-2.37,2.71S351.12,296,351.12,296L395,296s4.3-1.12,4.3-2.13S397.05,288.06,394.34,288.06Z" style="fill:#90CEA1;mix-blend-mode:multiply"></path><path d="M394.34,288.06s.34,1-2.37,2.71S351.12,296,351.12,296L395,296s4.3-1.12,4.3-2.13S397.05,288.06,394.34,288.06Z" style="opacity:0.30000000000000004;mix-blend-mode:multiply"></path></g><path d="M398.65,294s.2-4.38-5.16-6.58-7.33-.24-11.48,0a249.78,249.78,0,0,0-27,4.14c-7.08,1.71-12.15-1.32-14.1.87a14.86,14.86,0,0,0-2.68,4.15s31.65-.38,42.62-.87S397.43,297.15,398.65,294Z" style="fill:none;stroke:#2e353a;stroke-linecap:round;stroke-linejoin:round"></path><path d="M272.37,272.5a1,1,0,0,1-.38-.08,1,1,0,0,1-.52-1.28l5.08-11.85a1,1,0,0,1,.82-.59l9.87-.84a1,1,0,1,1,.17,1.94l-9.3.8-4.84,11.31A1,1,0,0,1,272.37,272.5Z" style="fill:#fff;stroke:#2e353a;stroke-miterlimit:10"></path><polygon points="275.87 295.12 263.8 295.12 261.22 269.6 278.45 269.6 275.87 295.12" style="fill:#2e353a;stroke:#2e353a;stroke-miterlimit:10"></polygon><rect x="260.67" y="267.86" width="18.34" height="3.67" style="fill:#fff;stroke:#2e353a;stroke-miterlimit:10"></rect><path d="M354.37,213.66s-2.66,15.36-1.77,20.09,4.72,9.15,12.4,8.86,11.23-8.86,11.23-8.86,7.38-.3,8.27-4.14-.89-6.5-2.95-6.5a17.31,17.31,0,0,0-5,1.18s-5.31-2.06-5-4.13,4.73-5.32,3.84-6.5S354.37,213.66,354.37,213.66Z" style="fill:#fff"></path><g style="clip-path:url(#freepik--clip-path-7--inject-1--inject-63)"><path d="M384.5,229.61c.89-3.84-.89-6.5-2.95-6.5a17.31,17.31,0,0,0-5,1.18s-5.31-2.06-5-4.13,4.73-5.32,3.84-6.5c-.22-.3-1.71-.45-3.8-.5-.54,1.15-3.64,8.07-1.78,13,2,5.43,1.7,11-.51,13.23-1.94,1.94-6.38,2.83-7.41,3a16.81,16.81,0,0,0,3.16.18c7.68-.3,11.23-8.86,11.23-8.86S383.61,233.45,384.5,229.61Z" style="fill:#90CEA1;mix-blend-mode:multiply"></path><path d="M384.5,229.61c.89-3.84-.89-6.5-2.95-6.5a17.31,17.31,0,0,0-5,1.18s-5.31-2.06-5-4.13,4.73-5.32,3.84-6.5c-.22-.3-1.71-.45-3.8-.5-.54,1.15-3.64,8.07-1.78,13,2,5.43,1.7,11-.51,13.23-1.94,1.94-6.38,2.83-7.41,3a16.81,16.81,0,0,0,3.16.18c7.68-.3,11.23-8.86,11.23-8.86S383.61,233.45,384.5,229.61Z" style="opacity:0.30000000000000004;mix-blend-mode:multiply"></path></g><path d="M354.37,213.66s-2.66,15.36-1.77,20.09,4.72,9.15,12.4,8.86,11.23-8.86,11.23-8.86,7.38-.3,8.27-4.14-.89-6.5-2.95-6.5a17.31,17.31,0,0,0-5,1.18s-5.31-2.06-5-4.13,4.73-5.32,3.84-6.5S354.37,213.66,354.37,213.66Z" style="fill:none;stroke:#2e353a;stroke-linecap:round;stroke-linejoin:round"></path><path d="M354.67,228.43s7.08,3.54,13.58.29c0,0-.59,7.09-7.38,7.68S354.67,228.43,354.67,228.43Z" style="fill:#2e353a;stroke:#2e353a;stroke-linecap:round;stroke-linejoin:round"></path><path d="M359.69,221.34l-.3,1.77s-2.36,1.18-1.48,2.36a3,3,0,0,0,2.66.89" style="fill:none;stroke:#2e353a;stroke-linecap:round;stroke-linejoin:round"></path><path d="M365.39,220.42c0,.85-.39,1.55-.87,1.55s-.88-.7-.88-1.55.39-1.56.88-1.56S365.39,219.56,365.39,220.42Z" style="fill:#2e353a"></path><path d="M357.43,219.61c0,.85-.4,1.55-.88,1.55s-.88-.7-.88-1.55.4-1.56.88-1.56S357.43,218.75,357.43,219.61Z" style="fill:#2e353a"></path><path d="M357.54,235.73a5.29,5.29,0,0,0,3.33.67,7.49,7.49,0,0,0,6.38-4.35C361.65,231.8,358.89,233.77,357.54,235.73Z" style="fill:#fff;stroke:#2e353a;stroke-linecap:round;stroke-linejoin:round"></path><path d="M363.82,215.43s3.51-2.59,4.32,1.45" style="fill:none;stroke:#2e353a;stroke-linecap:round;stroke-linejoin:round"></path><path d="M358.85,215.8s-1.65-2.21-3.12-.19" style="fill:none;stroke:#2e353a;stroke-linecap:round;stroke-linejoin:round"></path></g><g id="freepik--Device--inject-1--inject-63"><polygon points="90.77 319.82 86.87 319.82 98.46 308.62 102.36 308.62 90.77 319.82" style="fill:#fff;stroke:#2e353a;stroke-linecap:round;stroke-linejoin:round"></polygon><polygon points="88.09 319.82 84.19 319.82 95.78 308.62 99.68 308.62 88.09 319.82" style="fill:#2e353a;stroke:#2e353a;stroke-linecap:round;stroke-linejoin:round"></polygon><polygon points="107.72 319.82 111.62 319.82 100.03 308.62 96.13 308.62 107.72 319.82" style="fill:#fff;stroke:#2e353a;stroke-linecap:round;stroke-linejoin:round"></polygon><polygon points="110.41 319.82 114.31 319.82 102.72 308.62 98.82 308.62 110.41 319.82" style="fill:#2e353a;stroke:#2e353a;stroke-linecap:round;stroke-linejoin:round"></polygon><polygon points="201.95 319.82 198.05 319.82 209.64 308.62 213.54 308.62 201.95 319.82" style="fill:#fff;stroke:#2e353a;stroke-linecap:round;stroke-linejoin:round"></polygon><polygon points="199.26 319.82 195.36 319.82 206.96 308.62 210.86 308.62 199.26 319.82" style="fill:#2e353a;stroke:#2e353a;stroke-linecap:round;stroke-linejoin:round"></polygon><polygon points="218.9 319.82 222.8 319.82 211.21 308.62 207.31 308.62 218.9 319.82" style="fill:#2e353a;stroke:#2e353a;stroke-linecap:round;stroke-linejoin:round"></polygon><polygon points="221.59 319.82 225.49 319.82 213.9 308.62 210 308.62 221.59 319.82" style="fill:#fff;stroke:#2e353a;stroke-linecap:round;stroke-linejoin:round"></polygon><rect x="90.67" y="220.06" width="138.11" height="91.97" style="fill:#2e353a;stroke:#2e353a;stroke-linecap:round;stroke-linejoin:round"></rect><rect x="88.39" y="220.06" width="138.11" height="91.97" style="fill:#2e353a;stroke:#2e353a;stroke-linecap:round;stroke-linejoin:round"></rect><polygon points="224.24 312.02 224.24 220.06 86.13 220.06 86.13 221.34 83.09 227.78 83.09 312.02 224.24 312.02" style="fill:#2e353a;stroke:#2e353a;stroke-linecap:round;stroke-linejoin:round"></polygon><polygon points="224.24 312.02 224.24 220.06 220.6 227.78 220.6 312.02 224.24 312.02" style="fill:#2e353a;stroke:#2e353a;stroke-linecap:round;stroke-linejoin:round"></polygon><polygon points="83.09 227.78 220.6 227.78 224.24 220.06 86.13 220.06 83.09 227.78" style="fill:#fff;stroke:#2e353a;stroke-linecap:round;stroke-linejoin:round"></polygon><line x1="89.5" y1="301.25" x2="211" y2="301.25" style="fill:none;stroke:#fff;stroke-linecap:round;stroke-linejoin:round"></line><path d="M185,293.37H114.9a1.47,1.47,0,0,1,0-2.93H185a1.47,1.47,0,0,1,0,2.93Z" style="fill:#2e353a;stroke:#fff;stroke-linecap:round;stroke-linejoin:round"></path><polyline points="112.72 268.23 112.72 234.9 183.44 234.9 183.44 270.1" style="fill:none;stroke:#fff;stroke-linecap:round;stroke-linejoin:round"></polyline><rect x="70.28" y="325.19" width="174.48" height="65.34" style="fill:#2e353a;stroke:#2e353a;stroke-linecap:round;stroke-linejoin:round"></rect><rect x="180.96" y="325.19" width="63.79" height="65.34" style="fill:#90CEA1;stroke:#2e353a;stroke-linecap:round;stroke-linejoin:round"></rect><rect x="180.96" y="325.19" width="63.79" height="65.34" style="opacity:0.30000000000000004;mix-blend-mode:multiply"></rect><rect x="66.58" y="318.85" width="181.88" height="7.31" style="fill:#2e353a;stroke:#2e353a;stroke-linecap:round;stroke-linejoin:round"></rect><rect x="70.38" y="323.35" width="174.22" height="7.31" style="fill:#2e353a;stroke:#2e353a;stroke-linecap:round;stroke-linejoin:round"></rect><rect x="187.51" y="318.85" width="60.95" height="7.31" style="fill:#90CEA1;stroke:#2e353a;stroke-linecap:round;stroke-linejoin:round"></rect><rect x="187.51" y="318.85" width="60.95" height="7.31" style="opacity:0.30000000000000004;mix-blend-mode:multiply"></rect></g></svg>